<svg xmlns="http://www.w3.org/2000/svg" viewBox="0 0 42.93 42.93"><defs><style>.cls-1{fill:none;stroke:#c6cfd9;stroke-linecap:round;stroke-linejoin:round;stroke-width:4px;}</style></defs><path class="cls-1" d="M23,2H34.14a6.83,6.83,0,0,1,6.79,6.78V34.14A6.84,6.84,0,0,1,34.11,41H8.82A6.84,6.84,0,0,1,2,34.14V8.81A6.82,6.82,0,0,1,8.82,2h.76" transform="translate(0 -0.03)"/><path class="cls-1" d="M17.48,12.63A8.72,8.72,0,0,0,13,20.31V25a6.06,6.06,0,0,1-.79,2.3,1.17,1.17,0,0,0,.47,1.58,1.25,1.25,0,0,0,.51.14H29.76a1.16,1.16,0,0,0,1.11-1.19,1.15,1.15,0,0,0-.14-.51A6.18,6.18,0,0,1,30,25.05V20.34a8.68,8.68,0,0,0-6.79-8.56" transform="translate(0 -0.03)"/><path class="cls-1" d="M23,29c0,1.26-.79,2.23-1.65,2.16s-1.44-1-1.48-2.16" transform="translate(0 -0.03)"/></svg>